# xmcd
#
# Track frame offsets:
#	150
#	15430
#	33238
#	48921
#	77382
#	85232
#	99318
#	124108
#	149232
#	172847
#
# Disc length: 2559 seconds
#
# Revision: 1
# Processed by: cddbd v1.5.2PL0 Copyright (c) Steve Scherf et al.
# Submitted via: audiograbber 1.83.01
#
DISCID=6f09fd0a
DTITLE=Larry Johnson - Two Gun Green
DYEAR=2002
DGENRE=Blues
TTITLE0=Can't Last Very Long
TTITLE1=Late Last Night
TTITLE2=Midnight Train
TTITLE3=I Used To Be Down
TTITLE4=Old Time Religion
TTITLE5=Evening Sun Go Down
TTITLE6=Two Gun Green
TTITLE7=Goodnight Irene
TTITLE8=Back To The Groove
TTITLE9=Charlie Stone
EXTD=
EXTT0=
EXTT1=
EXTT2=
EXTT3=
EXTT4=
EXTT5=
EXTT6=
EXTT7=
EXTT8=
EXTT9=
PLAYORDER=
